<?xml version="1.0" encoding="UTF-8" standalone="no"?>
<!-- Created with Inkscape (http://www.inkscape.org/) -->

<svg
   xmlns:dc="http://purl.org/dc/elements/1.1/"
   xmlns:cc="http://creativecommons.org/ns#"
   xmlns:rdf="http://www.w3.org/1999/02/22-rdf-syntax-ns#"
   xmlns:svg="http://www.w3.org/2000/svg"
   xmlns="http://www.w3.org/2000/svg"
   xmlns:sodipodi="http://sodipodi.sourceforge.net/DTD/sodipodi-0.dtd"
   xmlns:inkscape="http://www.inkscape.org/namespaces/inkscape"
   width="285"
   height="420"
   viewBox="0 0 285 420.00001"
   id="svg5332"
   version="1.1"
   inkscape:version="0.91 r13725"
   sodipodi:docname="icon_minimal.svg">
  <defs
     id="defs5334" />
  <sodipodi:namedview
     id="base"
     pagecolor="#ffffff"
     bordercolor="#666666"
     borderopacity="1.0"
     inkscape:pageopacity="0.0"
     inkscape:pageshadow="2"
     inkscape:zoom="0.7"
     inkscape:cx="536.70067"
     inkscape:cy="385.17387"
     inkscape:document-units="px"
     inkscape:current-layer="layer1"
     showgrid="false"
     inkscape:snap-page="true"
     units="px"
     inkscape:window-width="1920"
     inkscape:window-height="1080"
     inkscape:window-x="0"
     inkscape:window-y="0"
     inkscape:window-maximized="1" />
  <metadata
     id="metadata5337">
    <rdf:RDF>
      <cc:Work
         rdf:about="">
        <dc:format>image/svg+xml</dc:format>
        <dc:type
           rdf:resource="http://purl.org/dc/dcmitype/StillImage" />
        <dc:title></dc:title>
      </cc:Work>
    </rdf:RDF>
  </metadata>
  <g
     inkscape:label="Layer 1"
     inkscape:groupmode="layer"
     id="layer1"
     transform="translate(0,-632.36216)">
    <g
       id="g6485"
       transform="translate(-225.71429,520)">
      <path
         id="path4354"
         d="m 430.03093,272.50463 c -4.342,0 -8.678,-1.653 -11.988,-4.965 -6.623,-6.621 -6.623,-17.355 0,-23.978 l 50.631,-50.627 -50.631,-50.63 c -6.623,-6.62 -6.623,-17.355 0,-23.976 6.619,-6.621 17.354,-6.623 23.975,0 l 62.621,62.616 c 3.176,3.179 4.965,7.492 4.965,11.989 0,4.496 -1.789,8.81 -4.965,11.987 l -62.621,62.618 c -3.312,3.312 -7.651,4.966 -11.987,4.966 z"
         style="fill:#ffffff"
         inkscape:connector-curvature="0" />
      <path
         id="path4370"
         d="m 307.11493,369.36263 c 4.336,0 8.676,1.656 11.988,4.966 6.619,6.618 6.619,17.356 0,23.977 l -50.632,50.628 50.631,50.63 c 6.619,6.619 6.619,17.354 0,23.975 -6.621,6.622 -17.355,6.622 -23.979,0 l -62.618,-62.614 c -3.179,-3.181 -4.966,-7.493 -4.966,-11.99 0,-4.494 1.788,-8.81 4.966,-11.988 l 62.618,-62.617 c 3.312,-3.311 7.652,-4.967 11.992,-4.967 z"
         style="fill:#ffffff"
         inkscape:connector-curvature="0" />
      <path
         id="circle4384"
         d="m 368.30469,267.43359 a 53.5,53.5 0 0 0 -53.5,53.5 53.5,53.5 0 0 0 53.5,53.5 53.5,53.5 0 0 0 53.5,-53.5 53.5,53.5 0 0 0 -53.5,-53.5 z m -4.22657,27.21485 c 4.284,0 7.7113,0.99628 10.2793,2.98828 2.568,1.993 3.85352,4.65805 3.85352,7.99805 0,2.741 -0.79477,5.24762 -2.38477,7.51562 -1.589,2.269 -4.15808,4.42852 -7.70508,6.47852 l 9.81446,9.57226 c 1.635,-2.695 3.05104,-6.16239 4.24804,-10.40039 l 10.98829,0 c -0.82901,3.109 -1.97088,6.14452 -3.42188,9.10352 -1.451,2.959 -3.09745,5.57937 -4.93945,7.85937 l 10.39843,10.12305 -13.02539,0 -3.97265,-3.9043 c -4.4,3.064 -9.37574,4.5957 -14.92774,4.5957 -5.62,0 -10.07709,-1.28914 -13.37109,-3.86914 -3.294,-2.579 -4.93945,-6.06775 -4.93945,-10.46875 0,-3.155 0.69584,-5.84636 2.08984,-8.06835 1.394,-2.222 3.78392,-4.30133 7.16992,-6.23633 -1.728,-1.981 -2.98162,-3.8746 -3.76562,-5.6836 -0.783,-1.808 -1.17578,-3.78378 -1.17578,-5.92578 0,-3.501 1.34239,-6.32284 4.02539,-8.46484 2.683,-2.142 6.26971,-3.21289 10.76171,-3.21289 z m -0.0684,8.15234 c -1.543,0 -2.75754,0.36947 -3.64454,1.10547 -0.887,0.737 -1.33007,1.78553 -1.33007,3.14453 0,2.027 1.09325,4.26213 3.28125,6.70313 1.98,-1.106 3.5025,-2.19463 4.5625,-3.26563 1.06,-1.071 1.58789,-2.32005 1.58789,-3.74805 0,-1.22 -0.41319,-2.18176 -1.24219,-2.88476 -0.829,-0.703 -1.90084,-1.05469 -3.21484,-1.05469 z m -3.625,21.42383 c -1.337,1.014 -2.39111,2.07369 -3.16211,3.17969 -0.771,1.106 -1.15821,2.38298 -1.15821,3.83398 0,1.981 0.74252,3.55842 2.22852,4.73242 1.486,1.174 3.39275,1.76367 5.71875,1.76368 2.902,0 5.51675,-0.70438 7.84375,-2.10938 l -11.4707,-11.40039 z"
         style="fill:#ffffff;fill-opacity:1"
         inkscape:connector-curvature="0" />
    </g>
  </g>
</svg>
